<svg width="98" height="28" viewBox="0 0 98 28" fill="none" xmlns="http://www.w3.org/2000/svg">
<path d="M24.0937 5.3715C24.6944 6.29431 24.9391 7.26107 24.6499 8.35966C24.027 10.6667 23.4931 12.9957 22.9146 15.3027C22.4697 17.1044 22.0025 18.8841 21.5575 20.6858C21.2461 21.9602 20.9568 23.2345 20.6009 24.5089C20.2672 25.6514 19.6442 26.6182 18.4651 27.1016C17.9534 27.2993 17.4417 27.3433 16.9078 27.2554C15.8844 27.1016 14.861 26.9697 13.8376 26.8379C12.9922 26.728 12.1691 26.5962 11.3237 26.4864C9.9888 26.3106 8.65395 26.1348 7.31909 25.9371C6.47369 25.8272 5.65053 25.6734 4.80512 25.5855C4.11545 25.4976 3.47027 25.3878 2.86959 25.0362C1.71271 24.3551 1.02304 23.3883 0.978546 22.0481C0.956298 20.8396 1.08978 19.6312 1.15653 18.4227C1.22327 17.2582 1.26776 16.0937 1.33451 14.9512C1.4235 13.6329 1.51249 12.2926 1.55698 10.9743C1.62372 9.76585 1.66822 8.53543 1.77946 7.32699C1.86845 6.2284 2.49138 5.45939 3.47027 4.95404C3.64825 4.86615 3.82623 4.82221 3.95972 4.6684C4.42691 4.42671 4.93861 4.3608 5.4503 4.3608C7.09662 4.38277 8.72069 4.29488 10.3448 4.29488C11.7464 4.27291 13.1479 4.29488 14.5495 4.22897C15.6619 4.18502 16.7965 4.25094 17.9089 4.18502C19.088 4.11911 20.2449 4.16305 21.424 4.14108C22.4252 4.11911 23.2483 4.53657 23.8935 5.26164C23.9603 5.28361 24.0047 5.34953 24.0937 5.3715Z" fill="#FDFDFD"/>
<path d="M24.0938 5.3714C23.9603 5.43732 23.9158 5.30549 23.8713 5.23957C23.3374 4.71225 22.7367 4.33873 21.9803 4.18493C21.7578 4.14098 21.5353 4.14098 21.3128 4.16295C19.6665 4.18493 18.0424 4.2069 16.3961 4.22887C13.7042 4.27281 11.0122 4.29478 8.32027 4.3607C7.18564 4.38267 6.02877 4.33873 4.89414 4.44859C4.56043 4.47056 4.27121 4.62436 3.9375 4.62436C3.982 4.07507 4.00424 3.5038 4.04874 2.95451C4.22672 1.30663 5.58382 0.581557 6.96317 0.757331C8.60948 0.977049 10.2336 1.35057 11.8576 1.65817C14.5941 2.16352 17.3305 2.69085 20.067 3.21817C20.6009 3.32803 21.1348 3.41591 21.6688 3.52577C22.7812 3.76746 23.5153 4.47056 24.0938 5.3714Z" fill="#CFCFCF"/>
<path d="M8.40917 11.3039C8.89862 10.9304 9.34357 10.5568 9.87751 10.2712C10.7229 9.85374 11.6128 9.69994 12.5472 9.87571C13.4816 10.0515 14.0156 10.6228 14.1935 11.5236C14.327 11.5456 14.3715 11.4137 14.4383 11.3478C15.1724 10.6228 16.0178 10.0735 17.0635 9.87571C18.0869 9.69994 19.088 9.74388 19.9112 10.425C20.7121 11.0842 20.8456 11.985 20.6898 12.9078C20.4006 14.5777 19.8889 16.2036 19.4885 17.8515C19.355 18.4447 19.177 19.0379 19.0435 19.6312C18.999 19.8509 18.8878 19.9168 18.643 19.9168C17.5974 19.8948 16.5295 19.8948 15.4839 19.9168C15.1947 19.9168 15.1724 19.8509 15.2392 19.6092C15.7064 17.8295 16.1736 16.0498 16.6408 14.2701C16.7075 14.0284 16.752 13.7867 16.7298 13.545C16.7075 13.1275 16.485 12.8858 16.0623 12.8199C15.2837 12.732 14.7497 13.0177 14.416 13.6988C14.0823 14.358 13.9711 15.061 13.7708 15.7422C13.4149 17.0605 13.0589 18.3568 12.7029 19.6751C12.6585 19.8289 12.5917 19.8948 12.4137 19.8948C11.3458 19.8948 10.278 19.8948 9.21008 19.8948C8.85412 19.8948 8.87637 19.8948 8.94311 19.5653C9.41031 17.7636 9.87751 15.9399 10.3447 14.1382C10.5227 13.4351 10.4115 13.0396 10.011 12.8639C9.38806 12.6881 8.63165 12.9078 8.27569 13.4791C7.96422 13.9625 7.83074 14.5118 7.675 15.061C7.2523 16.5991 6.8296 18.1371 6.42914 19.6751C6.38465 19.8729 6.29566 19.9388 6.07318 19.9388C5.0053 19.9388 3.93742 19.9168 2.86953 19.9388C2.60256 19.9388 2.60256 19.8509 2.64706 19.6312C3.38123 16.9946 4.1154 14.336 4.82732 11.6774C4.93856 11.238 5.07204 10.7985 5.18328 10.3591C5.22777 10.2053 5.29452 10.1174 5.4725 10.1394C6.47364 10.1394 7.47478 10.1394 8.47592 10.1394C8.69839 10.1394 8.76513 10.1833 8.67614 10.403C8.56491 10.6887 8.49816 10.9963 8.40917 11.3039Z" fill="#0A57FF"/>
<path d="M32.3032 5.34952H35.707L35.3511 6.95346C36.7082 5.6791 38.1098 5.04192 39.5781 5.04192C41.5359 5.04192 42.6928 5.81093 43.0042 7.37092C43.4937 6.6898 44.1611 6.1405 45.051 5.70107C45.9186 5.26163 46.8085 5.04192 47.6984 5.04192C48.7441 5.04192 49.5895 5.30558 50.1902 5.85487C50.8131 6.40416 51.1246 7.15121 51.1246 8.13993C51.1246 8.60134 51.0133 9.39233 50.7686 10.4909L49.0778 18.5545H45.4737L47.1645 10.4689C47.387 9.45824 47.476 8.88697 47.476 8.75514C47.476 8.38162 47.3647 8.07402 47.12 7.87627C46.8753 7.67853 46.5638 7.56867 46.1411 7.56867C45.2512 7.56867 44.4726 8.0081 43.7606 8.88697C43.2044 9.5681 42.7372 10.7985 42.359 12.5343L41.1132 18.5545H37.5091L39.1999 10.5568C39.4001 9.63401 39.4891 9.04078 39.4891 8.77712C39.4891 8.4036 39.3556 8.11796 39.1109 7.89824C38.8662 7.67853 38.5325 7.56867 38.132 7.56867C37.5981 7.56867 37.0419 7.76641 36.4857 8.16191C35.9295 8.5574 35.4623 9.15064 35.1286 9.91965C34.9284 10.3811 34.7059 11.216 34.4167 12.4684L33.1263 18.5326H29.5222L32.3032 5.34952Z" fill="white"/>
<path d="M64.184 13.0616H55.1515V13.3912C55.1515 14.2701 55.3962 14.9951 55.9079 15.5224C56.4196 16.0498 57.0203 16.3134 57.7322 16.3134C58.9114 16.3134 59.8457 15.6982 60.5354 14.4678L63.7613 14.9951C63.1384 16.2915 62.293 17.2362 61.2473 17.8734C60.2017 18.5106 59.0226 18.8402 57.71 18.8402C55.9747 18.8402 54.5286 18.2909 53.394 17.1923C52.2371 16.0937 51.6809 14.5996 51.6809 12.7101C51.6809 10.6667 52.3261 8.88697 53.6387 7.34895C54.9513 5.81093 56.7756 5.01994 59.1116 5.01994C60.6912 5.01994 61.9815 5.50332 62.9604 6.49205C63.9393 7.45881 64.4287 8.865 64.4287 10.7106C64.4287 11.6115 64.3397 12.3805 64.184 13.0616ZM61.1361 10.8864L61.1584 10.5349C61.1584 9.52415 60.9359 8.79909 60.4687 8.31571C60.0237 7.83233 59.4231 7.59064 58.7111 7.59064C57.977 7.59064 57.3095 7.87627 56.7088 8.42557C56.1082 8.97486 55.7077 9.80979 55.5075 10.8864H61.1361Z" fill="white"/>
<path d="M64.8291 8.00811L65.4075 5.34952H67.2763L68.3442 0.735455H71.9038L70.8804 5.34952H73.1497L72.5935 8.00811H70.2797L69.0116 13.523C68.7892 14.5117 68.6779 15.083 68.6779 15.2588C68.6779 15.5444 68.7669 15.7861 68.9671 15.9179C69.1674 16.0717 69.5011 16.1377 69.9683 16.1377C70.124 16.1377 70.5245 16.1157 71.2141 16.0498L70.6135 18.7084C69.9683 18.8182 69.3231 18.8841 68.6779 18.8841C67.4321 18.8841 66.4977 18.6424 65.8747 18.181C65.2518 17.7196 64.9403 17.0385 64.9403 16.1377C64.9403 15.7202 65.0961 14.7754 65.4298 13.3253L66.6311 8.00811H64.8291V8.00811Z" fill="white"/>
<path d="M74.3286 5.34952H77.7102L77.1763 7.92021C78.4444 6.00867 79.8015 5.06388 81.2921 5.06388C81.8038 5.06388 82.3599 5.19572 82.9829 5.4374L81.6035 8.35965C81.2698 8.24979 80.9361 8.18387 80.5579 8.18387C79.9795 8.18387 79.4678 8.33768 78.9561 8.64528C78.1997 9.12866 77.6212 9.74387 77.2208 10.4909C76.8203 11.2599 76.4199 12.5563 76.0194 14.4239L75.1295 18.5765H71.5254L74.3286 5.34952Z" fill="white"/>
<path d="M80.9585 13.0836C80.9585 10.9084 81.5592 9.08472 82.7605 7.5467C84.0954 5.87684 86.0309 5.04192 88.5671 5.04192C90.4582 5.04192 91.971 5.56924 93.1056 6.60191C94.2403 7.65656 94.7965 9.10669 94.7965 10.9743C94.7965 13.1715 94.0845 15.0171 92.6829 16.5551C91.2813 18.0931 89.4571 18.8622 87.1878 18.8622C85.3413 18.8622 83.8507 18.3348 82.6938 17.3022C81.5369 16.2695 80.9585 14.8633 80.9585 13.0836ZM91.2146 10.5349C91.2146 9.65598 90.9699 8.97486 90.4582 8.49148C89.9465 7.98613 89.3013 7.74444 88.5449 7.74444C87.8997 7.74444 87.2768 7.92022 86.6984 8.29374C86.1199 8.66726 85.6305 9.30444 85.1855 10.2053C84.7628 11.1061 84.5403 12.0509 84.5403 13.0177C84.5403 14.0064 84.8073 14.7754 85.319 15.3247C85.8529 15.874 86.4981 16.1377 87.2768 16.1377C88.2557 16.1377 89.1011 15.7202 89.7685 14.8633C90.7474 13.6768 91.2146 12.2487 91.2146 10.5349Z" fill="white"/>
<path d="M96.5318 18.1371C97.3428 18.1371 98.0001 17.4977 98.0001 16.7089C98.0001 15.9202 97.3428 15.2808 96.5318 15.2808C95.7209 15.2808 95.0635 15.9202 95.0635 16.7089C95.0635 17.4977 95.7209 18.1371 96.5318 18.1371Z" fill="white"/>
<path d="M56.1971 20.9495H57.1315L57.0425 21.3889C57.3984 21.0374 57.7989 20.8616 58.1993 20.8616C58.4663 20.8616 58.6888 20.9275 58.8445 21.0374C59.0002 21.1472 59.0892 21.301 59.1337 21.4988C59.2672 21.323 59.4452 21.1692 59.6899 21.0374C59.9347 20.9055 60.1794 20.8616 60.4241 20.8616C60.7133 20.8616 60.958 20.9275 61.1138 21.1033C61.2695 21.2571 61.3585 21.4548 61.3585 21.7185C61.3585 21.8503 61.3362 22.0481 61.2695 22.3557L60.8023 24.5528H59.8012L60.2684 22.3557C60.3351 22.07 60.3574 21.9162 60.3574 21.8943C60.3574 21.7844 60.3351 21.7185 60.2684 21.6526C60.2016 21.5867 60.1126 21.5647 60.0014 21.5647C59.7567 21.5647 59.5342 21.6965 59.334 21.9382C59.2005 22.114 59.067 22.4436 58.978 22.905L58.622 24.5309H57.6209L58.0881 22.3557C58.1326 22.114 58.1771 21.9382 58.1771 21.8723C58.1771 21.7844 58.1548 21.6965 58.0881 21.6306C58.0214 21.5647 57.9324 21.5427 57.8211 21.5427C57.7099 21.5427 57.5987 21.5647 57.4874 21.6306C57.3762 21.6965 57.2649 21.7844 57.176 21.8943C57.087 22.0041 57.0202 22.1579 56.9535 22.3117C56.9312 22.3996 56.8867 22.5754 56.82 22.861L56.464 24.5089H55.4629L56.1971 20.9495Z" fill="white"/>
<path d="M62.5376 20.9495H63.5387L63.0938 23.0807C63.0493 23.3444 63.0048 23.4982 63.0048 23.5641C63.0048 23.674 63.0493 23.7619 63.116 23.8278C63.205 23.8937 63.294 23.9376 63.4275 23.9376C63.5165 23.9376 63.6055 23.9157 63.6945 23.8937C63.7835 23.8717 63.8725 23.8058 63.9614 23.7399C64.0504 23.674 64.1394 23.5861 64.2062 23.5202C64.2729 23.4323 64.3397 23.3224 64.4064 23.1906C64.4509 23.0807 64.4954 22.9269 64.5399 22.6852L64.9181 20.9714H65.9192L65.1406 24.5748H64.2062L64.3174 24.0914C63.9169 24.465 63.472 24.6627 62.9826 24.6627C62.6711 24.6627 62.4486 24.5748 62.2706 24.399C62.0927 24.2233 62.0037 24.0036 62.0037 23.7179C62.0037 23.5861 62.0482 23.3444 62.1149 22.9709L62.5376 20.9495Z" fill="white"/>
<path d="M66.1194 24.5528L67.1873 19.5653H68.1884L67.1205 24.5528H66.1194Z" fill="white"/>
<path d="M68.3442 21.6745L68.5 20.9495H68.9894L69.1007 20.3782L70.2353 19.6971L69.9683 20.9495H70.569L70.4133 21.6745H69.8126L69.4789 23.1906C69.4121 23.4543 69.3899 23.63 69.3899 23.652C69.3899 23.7179 69.4121 23.7838 69.4566 23.8278C69.5011 23.8717 69.5901 23.8937 69.7236 23.8937C69.7681 23.8937 69.8793 23.8937 70.0573 23.8717L69.9016 24.5968C69.7236 24.6407 69.5456 24.6407 69.3676 24.6407C69.0117 24.6407 68.7669 24.5748 68.589 24.443C68.4332 24.3112 68.3442 24.1354 68.3442 23.8937C68.3442 23.7838 68.3887 23.5202 68.4777 23.1247L68.7892 21.6745H68.3442V21.6745Z" fill="white"/>
<path d="M71.2364 20.9495H72.2376L71.4589 24.5528H70.4578L71.2364 20.9495ZM71.5256 19.5653H72.5268L72.3488 20.4441H71.3477L71.5256 19.5653Z" fill="white"/>
<path d="M72.104 25.9371L72.9717 20.9495H73.4611L73.3721 21.4548C73.5501 21.2351 73.7058 21.0813 73.8616 20.9934C73.995 20.9055 74.1508 20.8616 74.3065 20.8616C74.5957 20.8616 74.8182 20.9934 75.0184 21.2351C75.2187 21.4768 75.3077 21.8503 75.3077 22.3117C75.3077 22.7512 75.2187 23.1686 75.0629 23.5421C74.9072 23.9157 74.707 24.2013 74.44 24.399C74.2398 24.5528 74.0395 24.6407 73.8171 24.6407C73.4611 24.6407 73.1719 24.421 72.9717 23.9816L72.6379 25.9371H72.104V25.9371ZM73.1274 23.1906C73.1274 23.4982 73.1941 23.7179 73.3054 23.8937C73.4389 24.0475 73.5946 24.1354 73.7726 24.1354C73.9283 24.1354 74.0618 24.0914 74.173 23.9816C74.3288 23.8498 74.4845 23.6081 74.5957 23.2785C74.707 22.9489 74.7737 22.6413 74.7737 22.3117C74.7737 22.0041 74.707 21.7624 74.5957 21.6086C74.4622 21.4548 74.3065 21.3669 74.1285 21.3669C73.995 21.3669 73.8393 21.4329 73.6836 21.5647C73.5278 21.6965 73.3944 21.9162 73.2831 22.2238C73.1719 22.5314 73.1274 22.861 73.1274 23.1906Z" fill="white"/>
<path d="M77.6439 24.1134C77.4436 24.3112 77.2656 24.443 77.1099 24.5309C76.9542 24.6188 76.7762 24.6407 76.5982 24.6407C76.3312 24.6407 76.1088 24.5528 75.9308 24.3551C75.7528 24.1574 75.6638 23.9157 75.6638 23.5861C75.6638 23.3444 75.7083 23.1467 75.8196 22.9709C75.9308 22.7951 76.0643 22.6633 76.2645 22.5754C76.4425 22.4875 76.7317 22.4216 77.0654 22.4216C77.3546 22.3996 77.5549 22.3996 77.6661 22.3776C77.7773 22.3557 77.8663 22.3337 77.9553 22.2898C77.9998 22.114 78.0221 21.9822 78.0221 21.8723C78.0221 21.7185 77.9553 21.6086 77.8441 21.4988C77.7328 21.4109 77.5549 21.3669 77.3324 21.3669C76.8874 21.3669 76.5982 21.5867 76.4647 22.0261L75.953 21.9822C76.1755 21.2351 76.6427 20.8836 77.3769 20.8836C77.7328 20.8836 78.0221 20.9715 78.2223 21.1472C78.4225 21.323 78.5338 21.5647 78.5338 21.8284C78.5338 22.0261 78.5115 22.2458 78.4448 22.4875L78.2445 23.3883C78.1778 23.674 78.1555 23.8937 78.1555 24.0695C78.1555 24.2013 78.1778 24.3551 78.2223 24.5528H77.6883C77.6661 24.443 77.6439 24.2892 77.6439 24.1134ZM77.8663 22.7292C77.7328 22.7951 77.5104 22.8391 77.1989 22.861C76.8874 22.883 76.665 22.9269 76.5537 22.9929C76.4425 23.0368 76.3535 23.1247 76.2868 23.2126C76.22 23.3224 76.1978 23.4323 76.1978 23.5641C76.1978 23.7399 76.2423 23.8937 76.3535 24.0036C76.4647 24.1134 76.5982 24.1574 76.7762 24.1574C76.9319 24.1574 77.1099 24.1134 77.2656 24.0036C77.4214 23.8937 77.5549 23.7619 77.6439 23.5641C77.7106 23.3883 77.7996 23.1027 77.8663 22.7292Z" fill="white"/>
<path d="M78.667 25.9371L78.6892 25.3658C78.8005 25.4097 78.8895 25.4097 79.0007 25.4097C79.1119 25.4097 79.1787 25.3878 79.2454 25.3219C79.3344 25.2559 79.4234 25.1021 79.5346 24.9044L79.6904 24.5528L79.1787 20.9495H79.6904L79.9129 22.7731C79.9573 23.1467 80.0018 23.4982 80.0241 23.8497L81.3812 20.9495H81.9151L79.9796 25.0362C79.7794 25.4537 79.6236 25.7173 79.4679 25.8272C79.3122 25.959 79.1564 26.003 78.9785 26.003C78.8895 26.025 78.7782 25.981 78.667 25.9371Z" fill="white"/>
<path d="M81.7595 24.5528L82.3825 20.9495H82.8941L82.7829 21.5427C82.9831 21.2791 83.1611 21.1033 83.3168 20.9934C83.4726 20.9055 83.6283 20.8616 83.8063 20.8616C83.9843 20.8616 84.1623 20.9275 84.2735 21.0374C84.407 21.1472 84.496 21.323 84.5405 21.5427C84.6962 21.323 84.8519 21.1472 85.0299 21.0374C85.2079 20.9275 85.3859 20.8616 85.5638 20.8616C85.8086 20.8616 85.9865 20.9275 86.12 21.0593C86.2535 21.1912 86.3203 21.3889 86.3203 21.6526C86.3203 21.7624 86.298 21.9602 86.2535 22.2019L85.8308 24.5309H85.3191L85.7641 22.1579C85.8086 21.9602 85.8086 21.8283 85.8086 21.7405C85.8086 21.6086 85.7863 21.5207 85.7196 21.4548C85.6528 21.3889 85.5638 21.3669 85.4526 21.3669C85.3191 21.3669 85.1634 21.4109 85.0077 21.5207C84.8519 21.6306 84.7184 21.7624 84.6295 21.9382C84.5405 22.114 84.4515 22.3996 84.3847 22.7951L84.0733 24.5528H83.5616L84.0065 22.114C84.0288 21.9382 84.051 21.8283 84.051 21.7624C84.051 21.6526 84.0288 21.5427 83.962 21.4768C83.8953 21.4109 83.8285 21.3669 83.7173 21.3669C83.4948 21.3669 83.2724 21.4768 83.0499 21.7185C82.8497 21.9382 82.6939 22.3337 82.6049 22.861L82.2935 24.5748H81.7595V24.5528Z" fill="white"/>
<path d="M88.8564 23.3224L89.3681 23.3883C89.2791 23.7399 89.1011 24.0475 88.7897 24.3112C88.5449 24.5309 88.2557 24.6407 87.9443 24.6407C87.7218 24.6407 87.5216 24.5748 87.3436 24.465C87.1656 24.3551 87.0099 24.1793 86.9209 23.9376C86.8096 23.696 86.7651 23.4323 86.7651 23.1027C86.7651 22.6853 86.8541 22.2898 87.0099 21.9162C87.1656 21.5427 87.3658 21.2791 87.6105 21.1033C87.8553 20.9275 88.1 20.8396 88.3892 20.8396C88.7452 20.8396 89.0344 20.9715 89.2569 21.2351C89.4793 21.4988 89.5906 21.8723 89.5906 22.3337C89.5906 22.5095 89.5683 22.6853 89.5461 22.883H87.3213C87.3213 22.9489 87.3213 23.0148 87.3213 23.0807C87.3213 23.4103 87.3881 23.674 87.5216 23.8498C87.655 24.0255 87.8108 24.1134 87.9887 24.1134C88.1667 24.1134 88.3447 24.0475 88.5004 23.9157C88.6339 23.7838 88.7674 23.5861 88.8564 23.3224ZM87.3436 22.4436H89.0566V22.3117C89.0566 21.9822 88.9899 21.7405 88.8564 21.5867C88.7229 21.4329 88.5672 21.345 88.367 21.345C88.1445 21.345 87.9443 21.4329 87.7663 21.6086C87.5883 21.7844 87.4326 22.07 87.3436 22.4436Z" fill="white"/>
<path d="M89.8799 24.5528L90.5028 20.9495H90.97L90.8588 21.5867C91.0813 21.323 91.2815 21.1253 91.4595 21.0374C91.6374 20.9275 91.8154 20.8836 91.9934 20.8836C92.2381 20.8836 92.4161 20.9715 92.5718 21.1253C92.7276 21.2791 92.7943 21.4988 92.7943 21.7844C92.7943 21.9162 92.7721 22.114 92.7053 22.3996L92.3049 24.5748H91.7932L92.2159 22.2898C92.2604 22.07 92.2826 21.8943 92.2826 21.7844C92.2826 21.6526 92.2381 21.5647 92.1714 21.4988C92.1046 21.4329 91.9934 21.3889 91.8599 21.3889C91.593 21.3889 91.3705 21.4988 91.148 21.7185C90.9478 21.9382 90.792 22.3337 90.6808 22.883L90.3916 24.5528H89.8799V24.5528Z" fill="white"/>
<path d="M94.2849 24.0475L94.1959 24.5528C94.0847 24.5968 93.9512 24.6188 93.8399 24.6188C93.662 24.6188 93.5062 24.5748 93.395 24.465C93.2838 24.3551 93.2393 24.2233 93.2393 24.0695C93.2393 23.9816 93.2615 23.8058 93.306 23.5202L93.662 21.4329H93.2615L93.3505 20.9495H93.751L93.9067 20.0926L94.5074 19.6751L94.2849 20.9714H94.7966L94.7076 21.4548H94.1959L93.8399 23.4543C93.7955 23.7179 93.7732 23.8717 93.7732 23.9157C93.7732 24.0035 93.7954 24.0475 93.8177 24.0914C93.8622 24.1354 93.9067 24.1354 93.9734 24.1354C94.1069 24.0914 94.1959 24.0695 94.2849 24.0475Z" fill="white"/>
</svg>
